<?xml version="1.0" encoding="utf-8"?>
<!-- Generator: Adobe Illustrator 21.1.0, SVG Export Plug-In . SVG Version: 6.00 Build 0)  -->
<svg version="1.1" id="Layer_1" xmlns="http://www.w3.org/2000/svg" xmlns:xlink="http://www.w3.org/1999/xlink" x="0px" y="0px"
	 viewBox="0 0 32 32" style="enable-background:new 0 0 32 32;" xml:space="preserve">
<style type="text/css">
	.st0{opacity:0.3;enable-background:new    ;}
</style>
<title>Artboard 1</title>
<polygon class="st0" points="22.3,10.6 9.7,10.6 16,16.7 "/>
<path class="st0" d="M16.6,18.4c-0.3,0.3-0.8,0.3-1.2,0l-7.8-7.5v10.8h16.7V10.9L16.6,18.4z"/>
<path class="st0" d="M16,0C7.2,0,0,7.2,0,16s7.2,16,16,16s16-7.2,16-16S24.8,0,16,0z M26.1,21.7c0,0.9-0.8,1.6-1.7,1.6c0,0,0,0,0,0
	H7.6c-0.9,0-1.7-0.7-1.7-1.6c0,0,0,0,0,0V10.6c0-0.9,0.7-1.7,1.7-1.7c0,0,0,0,0,0h16.7c0.9,0,1.7,0.7,1.7,1.6c0,0,0,0,0,0V21.7z"/>
</svg>
