<?xml version="1.0" encoding="UTF-8"?>
<svg width="32px" height="32px" viewBox="0 0 32 32" version="1.1" xmlns="http://www.w3.org/2000/svg" xmlns:xlink="http://www.w3.org/1999/xlink">
    <!-- Generator: Sketch 59 (86127) - https://sketch.com -->
    <title>email-red</title>
    <desc>Created with Sketch.</desc>
    <g id="email-red" stroke="none" stroke-width="1" fill="none" fill-rule="evenodd">
        <g id="email" fill="#D70202" fill-rule="nonzero">
            <polygon id="Path" points="22.3 10.6 9.7 10.6 16 16.7"></polygon>
            <path d="M16.6,18.4 C16.3,18.7 15.8,18.7 15.4,18.4 L7.6,10.9 L7.6,21.7 L24.3,21.7 L24.3,10.9 L16.6,18.4 Z" id="Path"></path>
            <path d="M16,0 C7.2,0 0,7.2 0,16 C0,24.8 7.2,32 16,32 C24.8,32 32,24.8 32,16 C32,7.2 24.8,0 16,0 Z M26.1,21.7 C26.1,22.6 25.3,23.3 24.4,23.3 C24.4,23.3 24.4,23.3 24.4,23.3 L7.6,23.3 C6.7,23.3 5.9,22.6 5.9,21.7 C5.9,21.7 5.9,21.7 5.9,21.7 L5.9,10.6 C5.9,9.7 6.6,8.9 7.6,8.9 C7.6,8.9 7.6,8.9 7.6,8.9 L24.3,8.9 C25.2,8.9 26,9.6 26,10.5 C26,10.5 26,10.5 26,10.5 L26,21.7 L26.1,21.7 Z" id="Shape"></path>
        </g>
    </g>
</svg>