<?xml version="1.0" encoding="utf-8"?>
<!-- Generator: Adobe Illustrator 20.1.0, SVG Export Plug-In . SVG Version: 6.00 Build 0)  -->
<svg version="1.1" id="Layer_1" xmlns="http://www.w3.org/2000/svg" xmlns:xlink="http://www.w3.org/1999/xlink" x="0px" y="0px"
	 viewBox="0 0 32 32" style="enable-background:new 0 0 32 32;" xml:space="preserve">
<style type="text/css">
	.st0{opacity:0.3;}
</style>
<g class="st0">
	<path d="M21.6,10h-2c-0.3,0-0.5,0.2-0.5,0.5v2c0,0.3,0.2,0.5,0.5,0.5h2c0.3,0,0.5-0.2,0.5-0.5v-2C22.1,10.2,21.9,10,21.6,10z"/>
	<path d="M20.8,14.8c0.1,0.5,0.2,0.9,0.2,1.4c0,2.7-2.2,4.9-5,4.9s-5-2.2-5-4.9c0-0.5,0.1-1,0.2-1.4l-1.3-0.3v7.1
		c0,0.3,0.1,0.5,0.5,0.5h11.2c0.3,0,0.5-0.1,0.5-0.5L22,14.5L20.8,14.8z"/>
	<path d="M16,19c1.7,0,3.2-1.4,3.2-3.1c0-1.7-1.4-3.1-3.2-3.1s-3.2,1.4-3.2,3.1C12.8,17.6,14.2,19,16,19z"/>
	<path d="M16,0C7.2,0,0,7.2,0,16s7.2,16,16,16s16-7.2,16-16S24.8,0,16,0z M24,22c0,1.1-0.9,2-2,2H9.9c-1.1,0-2-0.9-2-2V9.9
		c0-1.1,0.9-2,2-2h12.2c1.1,0,2,0.9,1.9,2V22z"/>
</g>
</svg>
