<?xml version="1.0" encoding="UTF-8"?>
<svg width="32px" height="32px" viewBox="0 0 32 32" version="1.1" xmlns="http://www.w3.org/2000/svg" xmlns:xlink="http://www.w3.org/1999/xlink">
    <!-- Generator: Sketch 59 (86127) - https://sketch.com -->
    <title>twitter-red</title>
    <desc>Created with Sketch.</desc>
    <g id="twitter-red" stroke="none" stroke-width="1" fill="none" fill-rule="evenodd">
        <g id="twitter" fill="#D70202" fill-rule="nonzero">
            <path d="M16,0 C7.2,0 0,7.2 0,16 C0,24.8 7.2,32 16,32 C24.8,32 32,24.8 32,16 C32,7.2 24.8,0 16,0 Z M24.8,10.5 C24.7,10.6 24.3,11.1 23.9,11.5 C23.1,12.2 23.1,12.3 23.1,12.9 C23.1,13.9 22.6,15.8 22.2,16.8 C21.4,18.8 19.7,20.8 18,21.8 C15.6,23.3 12.4,23.6 9.7,22.8 C8.8,22.5 7.2,21.8 7.2,21.7 C7.2,21.7 7.6,21.6 8.2,21.6 C9.4,21.5 10.6,21.2 11.6,20.6 L12.3,20.2 L11.5,19.9 C10.4,19.5 9.4,18.6 9.1,17.8 C9.1,17.5 9.1,17.5 9.8,17.5 L10.5,17.5 L9.9,17.2 C9.2,16.9 8.5,16.2 8.2,15.6 C8,15.2 7.7,14 7.7,13.9 C7.7,13.8 8,13.9 8.3,14 C9.2,14.3 9.3,14.2 8.8,13.7 C7.8,12.7 7.5,11.3 8,9.9 L8.3,9.3 L9,10.1 C10.8,11.8 12.8,12.8 15.1,13.1 L15.7,13.2 L15.7,12.6 C15.6,11 16.6,9.5 18.2,8.9 C18.8,8.7 19.8,8.7 20.5,8.7 C20.8,8.8 21.3,9.1 21.6,9.3 L22.2,9.7 L22.9,9.5 C23.3,9.4 23.8,9.2 24,9.1 C24.2,9 24.4,9 24.4,9 C24.4,9.2 23.9,10 23.5,10.4 C23,11 23.1,11 24.3,10.5 C24.9,10.3 24.9,10.3 24.8,10.5 Z" id="Shape"></path>
        </g>
    </g>
</svg>